<svg viewBox="0 0 886 218" xmlns="http://www.w3.org/2000/svg"><g fill="none" fill-rule="evenodd"><circle fill="#3DBC87" cx="109.024" cy="109.024" r="108.722"/><path d="M45.892 136.297l7.5 6.667s45.816-43.698 53.34-43.81c7.525-.115 57.507 42.144 57.507 42.144l7.916-7.085-52.923-64.59c-3.75-5-8.335-7.5-12.502-7.5-5.416 0-10.833 3.75-15.834 11.25L45.89 136.297z" fill="#0F2F21" fill-rule="nonzero"/><path d="M376.774 174.44l-7.866-27.705h-41.162l-8.127 27.704h-31.814l42.3-126.11h39.238l42.386 126.11h-34.956zm-29.102-97.707l-13.808 46.93h29.014l-13.546-46.93h-1.66zm158.39 36.443c-1.92-23.858-17.914-38.278-44.744-38.278-32.073 0-49.202 17.74-49.202 50.775 0 33.21 17.13 51.038 49.202 51.038 26.393 0 42.91-14.33 44.745-37.577H477.66c-1.398 9.09-7.078 13.808-16.342 13.808-11.973 0-18.178-9.09-18.178-27.266 0-18.003 6.118-27.004 18.178-27.004 9.44 0 15.032 5.417 16.343 14.506h28.404zm99.84 0c-1.923-23.858-17.916-38.278-44.746-38.278-32.073 0-49.202 17.74-49.202 50.775 0 33.21 17.13 51.038 49.202 51.038 26.393 0 42.91-14.33 44.745-37.577h-28.4c-1.4 9.09-7.08 13.808-16.343 13.808-11.973 0-18.178-9.09-18.178-27.266 0-18.003 6.117-27.004 18.177-27.004 9.44 0 15.032 5.417 16.343 14.506h28.4zm54.48-16.342c-10.137 0-17.216 7.078-18.003 18.09h35.305c-.524-11.36-6.99-18.09-17.304-18.09zm18.44 48.94h28.228c-3.408 18.964-21.236 30.937-46.405 30.937-31.025 0-48.853-18.35-48.853-50.25 0-32.072 18.265-51.56 48.416-51.56 29.976 0 47.454 18.177 47.454 49.2v8.566h-65.457v1.573c.262 12.67 7.515 20.536 19.314 20.536 9 0 15.204-3.32 17.3-9zm40.15 28.665h30.85v-55.584c0-11.187 6.03-18.703 16.08-18.703 10.486 0 15.293 6.555 15.293 18.353v55.932h30.937V111.6c0-23.333-11.274-36.704-32.947-36.704-14.07 0-24.208 7.08-28.49 18.09h-1.66V77.17H718.97v97.27zM835.15 54.883V78.48h-14.945v22.985h14.944v46.32c0 19.05 10.05 26.83 35.657 26.83 5.855 0 11.536-.526 14.77-1.225v-22.023c-2.273.262-4.196.437-7.78.437-8.04 0-11.797-3.583-11.797-10.924v-39.415h19.577V78.48H866V54.886h-30.85z" fill="#0F2F21"/></g></svg>