<svg
  xmlns="http://www.w3.org/2000/svg"
  xml:space="preserve"
  viewBox="0 0 54 68"
>
  <path
    fill="#0F2B46"
    d="M.188 17.274v26.81c0 1.393.73 2.67 1.921 3.367l23.063 13.386a3.797 3.797 0 0 0 3.844 0L52.078 47.45A3.887 3.887 0 0 0 54 44.085v-26.81c0-1.394-.73-2.67-1.922-3.367L29.016.522a3.797 3.797 0 0 0-3.844 0L2.109 13.947a3.871 3.871 0 0 0-1.921 3.327Z"
  />
  <path fill="#0F2B46" d="m36.703 67.53-.038-5.803.038-5.339-13.453 3.327" />
  <path
    fill="#142C46"
    d="m36.088 55.924 2.537-.658-.961.542c-.577.348-.961.967-.961 1.663v1.084l-.615-2.631Z"
  />
  <path
    fill="#fff"
    d="M17.79 18.474a3.95 3.95 0 0 1 5.535 0 4.016 4.016 0 0 1 0 5.804 3.95 3.95 0 0 1-5.535 0 4.016 4.016 0 0 1 0-5.804ZM35.087 28.572a3.95 3.95 0 0 1 5.535 0 4.016 4.016 0 0 1 0 5.803 3.95 3.95 0 0 1-5.535 0 4.016 4.016 0 0 1 0-5.803ZM17.79 39.25a3.95 3.95 0 0 1 5.535 0 4.016 4.016 0 0 1 0 5.803 3.95 3.95 0 0 1-5.535 0 4.016 4.016 0 0 1 0-5.803Z"
  />
  <path
    fill="#fff"
    d="m22.48 23.542 11.532 6.693 1.922-1.083-11.532-6.732-1.922 1.122ZM34.78 35.148l-10.378 6.035-1.922-1.121 10.379-5.997 1.922 1.083Z"
  />
</svg>
