<svg version="1.1" id="Layer_1" xmlns="http://www.w3.org/2000/svg" xmlns:xlink="http://www.w3.org/1999/xlink" x="0px" y="0px"
	 width="100%" viewBox="0 0 1000 1000" enable-background="new 0 0 1000 1000" xml:space="preserve">
<path fill="#000000" opacity="0.000000" stroke="none" 
	d="
M466.000000,1001.000000 
	C310.666656,1001.000000 155.833328,1001.000000 1.000000,1001.000000 
	C1.000000,667.666687 1.000000,334.333344 1.000000,1.000000 
	C334.333344,1.000000 667.666687,1.000000 1001.000000,1.000000 
	C1001.000000,334.333344 1001.000000,667.666687 1001.000000,1001.000000 
	C822.833313,1001.000000 644.666687,1001.000000 466.000000,1001.000000 
M455.943146,959.999817 
	C462.778870,957.052063 469.692017,954.270508 476.436768,951.127625 
	C505.034454,937.801636 533.591736,924.388794 562.143738,910.965027 
	C575.098694,904.874207 587.842896,898.294983 601.021912,892.742188 
	C605.882690,890.694153 607.113342,888.409546 607.111084,883.435913 
	C606.986145,604.831299 607.000000,326.226654 607.000000,47.622002 
	C607.000000,45.639111 607.000000,43.656219 607.000000,41.293358 
	C602.127625,43.453136 597.487915,45.356312 592.980469,47.533421 
	C568.492004,59.361439 544.016724,71.217171 519.575256,83.141922 
	C499.803711,92.788277 480.148407,102.675789 460.295227,112.149742 
	C456.065857,114.168007 454.897461,116.653015 454.899567,121.176468 
	C455.012939,366.955048 455.000427,612.733704 454.993103,858.512329 
	C454.993042,860.674805 454.889191,862.837280 453.977783,864.999878 
	C445.455353,863.670959 436.936798,862.316467 428.409729,861.017944 
	C404.637177,857.397827 381.446747,851.370422 358.531219,844.192566 
	C327.460022,834.460022 297.776123,821.535522 269.782196,804.913696 
	C245.658417,790.589783 223.477463,773.806396 204.363281,753.016785 
	C189.329025,736.664490 176.755936,718.906555 167.743011,698.524719 
	C160.900726,683.051514 156.289597,666.964478 155.271057,650.240906 
	C154.544571,638.312744 155.620895,626.141174 157.142914,614.238098 
	C160.099564,591.114990 169.845428,570.356201 182.557800,551.185974 
	C196.108139,530.752197 213.387131,513.565430 232.371124,498.048279 
	C249.579697,483.982269 268.245758,472.168030 287.977570,462.132416 
	C301.402771,455.304382 315.211182,449.131165 329.184357,443.499084 
	C361.582825,430.440491 395.191437,421.522034 429.586182,415.634003 
	C429.586182,383.427063 429.586182,351.266876 429.586182,319.362366 
	C426.258636,319.603668 423.297302,319.592865 420.415039,320.064972 
	C404.681519,322.641876 388.828461,324.707428 373.278412,328.136444 
	C348.456879,333.609924 323.676300,339.419708 299.180450,346.181519 
	C269.029755,354.504333 239.892563,365.879578 211.596329,379.195923 
	C183.186798,392.565552 155.548172,407.524353 130.435883,426.448303 
	C113.310898,439.353241 97.007431,453.426056 81.049934,467.770172 
	C72.910034,475.087128 66.180939,484.017242 59.094452,492.453644 
	C42.886402,511.749237 29.845125,532.992920 19.915037,556.200256 
	C10.222878,578.851624 4.147080,602.467957 3.298953,626.963440 
	C2.737377,643.182800 3.633550,659.735840 6.334104,675.724487 
	C11.524273,706.452942 23.881523,734.688354 41.188843,760.597046 
	C54.976284,781.236572 70.421402,800.579285 89.370407,816.801758 
	C103.183212,828.626953 116.701233,840.932068 131.429031,851.523804 
	C159.178391,871.480286 189.176254,887.719788 220.343689,901.797363 
	C249.764328,915.085876 280.090424,925.895264 311.168610,934.447815 
	C330.054321,939.644958 349.215820,943.944824 368.410461,947.882263 
	C384.499603,951.182678 400.775085,953.666077 417.045502,955.962219 
	C429.690643,957.746765 442.455078,958.685486 455.943146,959.999817 
M927.017395,563.519836 
	C950.873535,568.661987 974.729675,573.804138 998.998474,579.035278 
	C998.998474,577.600464 999.076660,576.610718 998.986450,575.636536 
	C998.003357,565.023804 996.993530,554.413513 995.992004,543.802490 
	C995.313538,536.614746 994.706360,529.419556 993.943848,522.240784 
	C992.681763,510.358459 991.212280,498.497375 990.036194,486.606964 
	C989.178650,477.937164 988.806702,469.219269 987.944885,460.549988 
	C986.405823,445.067780 984.548767,429.616913 983.036621,414.132294 
	C981.855286,402.034393 981.078552,389.897369 979.951111,377.793671 
	C979.491760,372.861908 978.580688,367.972168 977.761169,362.270630 
	C967.561096,368.043396 958.117737,373.396698 948.665955,378.735077 
	C933.404907,387.354492 918.163574,396.009857 902.825500,404.489929 
	C901.614441,405.159485 899.411377,405.147705 898.184143,404.490784 
	C891.320312,400.816742 884.738464,396.608856 877.832642,393.021698 
	C855.213135,381.272186 832.384583,369.904114 808.190674,361.705414 
	C785.984375,354.180328 763.798279,346.463043 741.224365,340.195343 
	C721.724121,334.781067 701.753052,330.972626 681.874451,327.039093 
	C665.498108,323.798584 648.952148,321.415039 632.233276,318.610046 
	C632.233276,351.488434 632.233276,383.591400 632.233276,415.589111 
	C686.855652,425.100861 738.748352,441.672028 787.312012,469.290710 
	C773.387756,477.084106 759.957153,484.572784 746.554382,492.110870 
	C733.251587,499.592712 719.976746,507.124329 705.474487,515.320984 
	C716.430603,517.795471 725.715332,519.956848 735.029602,521.982361 
	C753.096802,525.911377 771.184692,529.745056 789.256287,533.654114 
	C803.522278,536.739990 817.771606,539.903076 832.037476,542.989746 
	C850.108826,546.899841 868.184631,550.789185 886.267517,554.645569 
	C899.597717,557.488342 912.942139,560.263977 927.017395,563.519836 
z"/>
<path fill="#F7931E" opacity="1.000000" stroke="none" 
	d="
M454.833771,864.999756 
	C454.889191,862.837280 454.993042,860.674805 454.993103,858.512329 
	C455.000427,612.733704 455.012939,366.955048 454.899567,121.176468 
	C454.897461,116.653015 456.065857,114.168007 460.295227,112.149742 
	C480.148407,102.675789 499.803711,92.788277 519.575256,83.141922 
	C544.016724,71.217171 568.492004,59.361439 592.980469,47.533421 
	C597.487915,45.356312 602.127625,43.453136 607.000000,41.293358 
	C607.000000,43.656219 607.000000,45.639111 607.000000,47.622002 
	C607.000000,326.226654 606.986145,604.831299 607.111084,883.435913 
	C607.113342,888.409546 605.882690,890.694153 601.021912,892.742188 
	C587.842896,898.294983 575.098694,904.874207 562.143738,910.965027 
	C533.591736,924.388794 505.034454,937.801636 476.436768,951.127625 
	C469.692017,954.270508 462.778870,957.052063 455.495209,959.535278 
	C455.031525,955.752441 455.007996,952.434204 455.001160,949.115906 
	C454.943604,921.077209 454.889191,893.038452 454.833771,864.999756 
z"/>
<path fill="#B2B2B2" opacity="1.000000" stroke="none" 
	d="
M454.405762,864.999817 
	C454.889191,893.038452 454.943604,921.077209 455.001160,949.115906 
	C455.007996,952.434204 455.031525,955.752441 455.106873,959.535400 
	C442.455078,958.685486 429.690643,957.746765 417.045502,955.962219 
	C400.775085,953.666077 384.499603,951.182678 368.410461,947.882263 
	C349.215820,943.944824 330.054321,939.644958 311.168610,934.447815 
	C280.090424,925.895264 249.764328,915.085876 220.343689,901.797363 
	C189.176254,887.719788 159.178391,871.480286 131.429031,851.523804 
	C116.701233,840.932068 103.183212,828.626953 89.370407,816.801758 
	C70.421402,800.579285 54.976284,781.236572 41.188843,760.597046 
	C23.881523,734.688354 11.524273,706.452942 6.334104,675.724487 
	C3.633550,659.735840 2.737377,643.182800 3.298953,626.963440 
	C4.147080,602.467957 10.222878,578.851624 19.915037,556.200256 
	C29.845125,532.992920 42.886402,511.749237 59.094452,492.453644 
	C66.180939,484.017242 72.910034,475.087128 81.049934,467.770172 
	C97.007431,453.426056 113.310898,439.353241 130.435883,426.448303 
	C155.548172,407.524353 183.186798,392.565552 211.596329,379.195923 
	C239.892563,365.879578 269.029755,354.504333 299.180450,346.181519 
	C323.676300,339.419708 348.456879,333.609924 373.278412,328.136444 
	C388.828461,324.707428 404.681519,322.641876 420.415039,320.064972 
	C423.297302,319.592865 426.258636,319.603668 429.586182,319.362366 
	C429.586182,351.266876 429.586182,383.427063 429.586182,415.634003 
	C395.191437,421.522034 361.582825,430.440491 329.184357,443.499084 
	C315.211182,449.131165 301.402771,455.304382 287.977570,462.132416 
	C268.245758,472.168030 249.579697,483.982269 232.371124,498.048279 
	C213.387131,513.565430 196.108139,530.752197 182.557800,551.185974 
	C169.845428,570.356201 160.099564,591.114990 157.142914,614.238098 
	C155.620895,626.141174 154.544571,638.312744 155.271057,650.240906 
	C156.289597,666.964478 160.900726,683.051514 167.743011,698.524719 
	C176.755936,718.906555 189.329025,736.664490 204.363281,753.016785 
	C223.477463,773.806396 245.658417,790.589783 269.782196,804.913696 
	C297.776123,821.535522 327.460022,834.460022 358.531219,844.192566 
	C381.446747,851.370422 404.637177,857.397827 428.409729,861.017944 
	C436.936798,862.316467 445.455353,863.670959 454.405762,864.999817 
z"/>
<path fill="#B2B2B2" opacity="1.000000" stroke="none" 
	d="
M926.648804,563.294678 
	C912.942139,560.263977 899.597717,557.488342 886.267517,554.645569 
	C868.184631,550.789185 850.108826,546.899841 832.037476,542.989746 
	C817.771606,539.903076 803.522278,536.739990 789.256287,533.654114 
	C771.184692,529.745056 753.096802,525.911377 735.029602,521.982361 
	C725.715332,519.956848 716.430603,517.795471 705.474487,515.320984 
	C719.976746,507.124329 733.251587,499.592712 746.554382,492.110870 
	C759.957153,484.572784 773.387756,477.084106 787.312012,469.290710 
	C738.748352,441.672028 686.855652,425.100861 632.233276,415.589111 
	C632.233276,383.591400 632.233276,351.488434 632.233276,318.610046 
	C648.952148,321.415039 665.498108,323.798584 681.874451,327.039093 
	C701.753052,330.972626 721.724121,334.781067 741.224365,340.195343 
	C763.798279,346.463043 785.984375,354.180328 808.190674,361.705414 
	C832.384583,369.904114 855.213135,381.272186 877.832642,393.021698 
	C884.738464,396.608856 891.320312,400.816742 898.184143,404.490784 
	C899.411377,405.147705 901.614441,405.159485 902.825500,404.489929 
	C918.163574,396.009857 933.404907,387.354492 948.665955,378.735077 
	C958.117737,373.396698 967.561096,368.043396 977.761169,362.270630 
	C978.580688,367.972168 979.491760,372.861908 979.951111,377.793671 
	C981.078552,389.897369 981.855286,402.034393 983.036621,414.132294 
	C984.548767,429.616913 986.405823,445.067780 987.944885,460.549988 
	C988.806702,469.219269 989.178650,477.937164 990.036194,486.606964 
	C991.212280,498.497375 992.681763,510.358459 993.943848,522.240784 
	C994.706360,529.419556 995.313538,536.614746 995.992004,543.802490 
	C996.993530,554.413513 998.003357,565.023804 998.986450,575.636536 
	C999.076660,576.610718 998.998474,577.600464 998.998474,579.035278 
	C974.729675,573.804138 950.873535,568.661987 926.648804,563.294678 
z"/>
</svg>