<svg viewBox="0 0 60 60" xmlns="http://www.w3.org/2000/svg" fill-rule="evenodd" clip-rule="evenodd" stroke-linejoin="round" stroke-miterlimit="1.414"><path d="M49.005 33.624c-1.348 0-2.527.786-3.088 1.965h-5.614l-3.65-9.66c-.28-.68-.954-1.13-1.684-1.07-.73.05-1.35.56-1.52 1.29l-2.41 10.62-2.25-24.37c-.06-.79-.68-1.41-1.52-1.52-.79-.06-1.52.39-1.8 1.18l-7.01 23.36H9.362c-.898 0-1.684.73-1.684 1.68 0 .9.73 1.685 1.685 1.685h10.33c.73 0 1.405-.51 1.63-1.18l4.883-16.29 2.42 26.28c.054.84.73 1.46 1.57 1.512h.11c.786 0 1.46-.56 1.63-1.29l3.48-15.5 2.08 5.503c.22.68.84 1.07 1.57 1.07h6.68c.11 0 .17-.055.28-.055.62.957 1.683 1.575 2.863 1.575 1.91 0 3.425-1.518 3.425-3.427.05-1.85-1.46-3.37-3.32-3.37z"/></svg>