<svg width="219" height="168" xmlns="http://www.w3.org/2000/svg">
  <g fill-rule="nonzero" fill="none">
    <path
      d="M7 155S31.865 44 82.5 44c50.635 0 75.5 111 75.5 111H7z"
      fill="#D3D3D3"
    />
    <path
      d="M82.074 44c-2.417 0-4.774.251-7.074.728C121.164 54.286 143.852 155 143.852 155H158S132.996 44 82.074 44z"
      fill="silver"
    />
    <path
      d="M26 102.268c2.915 2.74 5.904 5.355 9.51 6.958 8.013 3.563 17.454 1.322 25.176-2.858 7.722-4.18 14.38-10.154 21.92-14.665 7.542-4.512 16.611-7.55 25.002-5.058 3.98 1.182 7.514 3.52 11.196 5.463 5.863 3.093 12.978 5.098 19.196 3.698C125.58 68.83 107.423 43 83.431 43 57.527 43 38.424 73.113 26 102.268z"
      fill="#DDD"
    />
    <path
      d="M75 43.753c20.57 4.359 36.521 27.073 47.924 51.093 2.405.911 4.912 1.593 7.41 1.927 2.608.348 5.205.316 7.666-.233C125.286 69.19 106.701 43 82.144 43c-2.44 0-4.821.26-7.144.753z"
      fill="#CDCDCD"
    />
    <path
      d="M146 164.837c0 1.078-.09 2.137-.253 3.163H47c0-9.081 7.379-16.447 16.486-16.447 3.203 0 6.19.919 8.722 2.498.526-5.904 3.255-11.166 7.37-14.976-5.088-1.514-8.793-6.213-8.793-11.775 0-6.795 5.519-12.3 12.324-12.3 6.81 0 12.33 5.506 12.33 12.3 0 2.02-.499 3.922-1.368 5.604.451-.028.907-.042 1.367-.042 9.835 0 18.243 6.077 21.676 14.67a19.578 19.578 0 019.234-2.3c10.855 0 19.652 8.776 19.652 19.605z"
      fill="#C9C9C9"
    />
    <path
      d="M80.36 127.332a12.05 12.05 0 01-.835 4.412c-.221.563.21 1.156.82 1.156h.014c9.221 0 17.2 5.245 21.068 12.883.483.954 1.631 1.366 2.63.96a19.931 19.931 0 017.512-1.46c1.383 0 2.732.141 4.034.407a23.575 23.575 0 00-22.396-12.747 12.098 12.098 0 001.358-6.333c-.386-6.548-6.063-11.725-12.693-11.588a12.467 12.467 0 00-6.846 2.21c3.223 2.224 5.334 5.916 5.334 10.1z"
      fill="#C3C3C3"
    />
    <path
      d="M.397 168H87c0-8.86-7.137-16.04-15.935-16.04-1.502 0-2.953.207-4.33.597.14-.977.215-1.977.215-2.996 0-11.354-9.143-20.561-20.427-20.561-9.764 0-17.927 6.897-19.942 16.114a19.743 19.743 0 00-6.671-1.155C8.915 143.96 0 152.932 0 164c0 1.372.135 2.71.397 4.001z"
      fill="#E5E5E5"
    />
    <path
      d="M66.511 152.557c.142-.977.217-1.977.217-2.996 0-11.354-9.245-20.561-20.654-20.561-2.485 0-4.867.438-7.074 1.239 7.923 2.876 13.578 10.442 13.578 19.322v.061c-.004 1.439 1.221 2.537 2.66 2.406.493-.045.994-.068 1.5-.068 8.896 0 16.112 7.18 16.112 16.04H87c0-8.86-7.216-16.04-16.112-16.04-1.518 0-2.985.207-4.377.597z"
      fill="#EAEAEA"
    />
    <path d="M91 168s19.43-89 59-89 59 89 59 89H91z" fill="#ADADAD" />
    <path
      d="M153.988 79c-2.404 0-4.732.33-6.988.948C181.878 89.486 199.024 168 199.024 168H213s-19.434-89-59.012-89z"
      fill="#8F8F8F"
    />
    <path
      d="M181.5 0c-1.933 0-3.5 1.593-3.5 3.557v4.886c0 1.964 1.567 3.557 3.5 3.557s3.5-1.593 3.5-3.557V3.557C185 1.593 183.433 0 181.5 0zM202.365 20c.862 0 1.723-.328 2.38-.986l3.27-3.269a3.365 3.365 0 10-4.76-4.76l-3.27 3.27a3.365 3.365 0 002.38 5.745zM215.443 34h-4.886c-1.965 0-3.557 1.567-3.557 3.5s1.592 3.5 3.557 3.5h4.886c1.965 0 3.557-1.567 3.557-3.5s-1.592-3.5-3.557-3.5zM204.745 54.986a3.365 3.365 0 10-4.76 4.76l3.27 3.268a3.357 3.357 0 002.38.986 3.365 3.365 0 002.38-5.745l-3.27-3.27zM160.745 10.986a3.365 3.365 0 10-4.759 4.76l3.269 3.269a3.355 3.355 0 002.38.985 3.366 3.366 0 002.38-5.746l-3.27-3.268z"
      fill="#FFC344"
    />
    <ellipse fill="#FFD15B" cx="182" cy="37.5" rx="18" ry="17.5" />
    <path
      d="M182.923 20c-2.465 0-4.806.54-6.923 1.503 5.98 2.723 10.154 8.858 10.154 15.997 0 7.138-4.173 13.274-10.154 15.997A16.657 16.657 0 00182.923 55C192.354 55 200 47.165 200 37.5S192.354 20 182.923 20z"
      fill="#FFC344"
    />
    <path
      d="M194.594 62H76.407c-.863 0-1.526-.805-1.39-1.694.995-6.452 6.36-11.38 12.831-11.38.73 0 1.45.069 2.146.191 1.356-8.555 8.476-15.082 17.065-15.082 1.893 0 3.712.322 5.413.907C113.898 24.242 122.702 16 133.356 16c11.65 0 21.09 9.846 21.09 21.993 0 .912-.056 1.809-.159 2.691a14.865 14.865 0 018.537-2.69c7.214 0 13.268 5.171 14.942 12.152a12.51 12.51 0 015.385-1.219c6.472 0 11.837 4.928 12.83 11.38.138.888-.525 1.693-1.387 1.693z"
      fill="#F8F8F8"
    />
    <path
      d="M196.982 60.307c-.996-6.452-6.367-11.38-12.847-11.38-1.924 0-3.75.439-5.392 1.219-1.677-6.98-7.738-12.152-14.961-12.152-3.165 0-6.105.99-8.548 2.69.103-.882.159-1.778.159-2.69 0-12.147-9.452-21.994-21.117-21.994-4.149 0-8.014 1.25-11.276 3.403 8.587 2.79 14.817 11.136 14.817 20.998v.041c-.003 1.109 1.08 1.828 2.05 1.372a14.848 14.848 0 016.338-1.413c6.71 0 12.418 4.462 14.539 10.692.257.756 1.05 1.157 1.783.907a12.505 12.505 0 014.032-.666c6.238 0 11.447 4.568 12.716 10.666h16.317c.863 0 1.527-.805 1.39-1.693z"
      fill="#F1F1F1"
    />
  </g>
</svg>
