<svg viewBox="0 0 24 18" xmlns="http://www.w3.org/2000/svg"><path d="M15.538.192a.5.5 0 0 0-.653.27L7.97 17.155a.5.5 0 1 0 .924.383L15.81.845a.5.5 0 0 0-.271-.653zm1.144 4.118l4.788 3.754a1 1 0 0 1 .025 1.553l-4.844 4.061a.478.478 0 0 0-.045.69c.19.207.508.227.723.047l5.73-4.801a1 1 0 0 0-.022-1.551l-5.691-4.504a.53.53 0 0 0-.727.064.474.474 0 0 0 .063.687zm-9.27-.003L2.53 8.077a1 1 0 0 0-.042 1.548l4.695 4.048a.485.485 0 0 1 .04.695.519.519 0 0 1-.72.043L.927 9.62a1 1 0 0 1 .036-1.547l5.786-4.518a.534.534 0 0 1 .728.067.47.47 0 0 1-.065.684z" fill="#000" fill-rule="evenodd"/></svg>