<svg viewBox="0 0 20 19" xmlns="http://www.w3.org/2000/svg"><path d="M15.868 10.349l.576-.583a.506.506 0 0 1 .866.355v1.861a.865.865 0 0 1-1.731 0v-.93a1 1 0 0 1 .289-.703zM6.813 5.924h.337a1 1 0 0 0 .71-.297l.563-.569a.508.508 0 0 0-.361-.865H6.924a.865.865 0 0 0-.866.865v.112c0 .416.338.754.755.754zm.622 2.583L14.948.926a1 1 0 0 1 1.417-.004l2.512 2.51a1 1 0 0 1 .003 1.412l-7.506 7.577a1 1 0 0 1-.504.274l-3.27.692a1 1 0 0 1-1.18-1.207l.752-3.198a1 1 0 0 1 .263-.475zm2.862 2.54l6.882-7.009-1.477-1.477-6.893 7.018-.442 1.877 1.93-.408zm.954 6.128a.865.865 0 0 0-.865-.865H6.924a.865.865 0 1 0 0 1.731h3.462a.865.865 0 0 0 .865-.866zm-7.789-.865h-.866a.865.865 0 0 1-.865-.866.865.865 0 1 0-1.731 0v1.597a1 1 0 0 0 1 1h2.462a.865.865 0 0 0 0-1.731zm12.117-.866a.865.865 0 0 1-.866.866h-.865a.865.865 0 1 0 0 1.731h2.462a1 1 0 0 0 1-1v-1.597a.865.865 0 1 0-1.731 0zM.865 12.848a.865.865 0 0 0 .866-.866v-1.73a.865.865 0 0 0-1.731 0v1.73c0 .478.387.866.865.866zm.866-6.059c0-.478.387-.865.865-.865h.866a.865.865 0 1 0 0-1.731H1a1 1 0 0 0-1 1v1.596a.865.865 0 0 0 1.731 0z" fill-rule="nonzero" fill="#000"/></svg>
