<svg viewBox="0 0 60 60" xmlns="http://www.w3.org/2000/svg" fill-rule="evenodd" clip-rule="evenodd" stroke-linejoin="round" stroke-miterlimit="1.414"><path d="M30 9.734c11.185 0 20.266 9.08 20.266 20.266 0 11.185-9.08 20.266-20.266 20.266-11.185 0-20.266-9.08-20.266-20.266 0-11.185 9.08-20.266 20.266-20.266zm0 2.48c9.816 0 17.786 7.97 17.786 17.786 0 9.816-7.97 17.786-17.786 17.786-9.816 0-17.786-7.97-17.786-17.786 0-9.816 7.97-17.786 17.786-17.786z"/><path d="M12.756 48.062c.225.226.59.226.817 0l34.49-34.49c.225-.225.225-.59 0-.816l-.82-.818c-.224-.226-.59-.226-.816 0l-34.49 34.49c-.225.225-.225.59 0 .816l.82.818z"/></svg>