<svg viewBox="0 0 60 60" xmlns="http://www.w3.org/2000/svg" fill-rule="evenodd" clip-rule="evenodd" stroke-linejoin="round" stroke-miterlimit="1.414"><path d="M44.665 43.393v-6.285c0-.898.748-1.646 1.646-1.646.9 0 1.65.748 1.65 1.646v7.93c0 .974-.75 1.722-1.64 1.722H13.69c-.9 0-1.647-.748-1.647-1.646v-8.006c0-.898.748-1.646 1.646-1.646.89 0 1.64.748 1.64 1.646v6.285h29.33zM30.525 13.24c.074 0 .074.075.148.075.075.075.075.075.15.075s.075.075.15.075l.3.3 6.583 7.706c.524.68.45 1.72-.224 2.32-.3.23-.674.38-1.048.38-.45 0-.972-.22-1.272-.6l-3.666-4.26v12.94c0 .9-.748 1.65-1.646 1.65-.898 0-1.646-.75-1.57-1.642V19.38l-3.443 4.115c-.3.375-.823.6-1.272.6-.374 0-.748-.15-1.047-.375-.75-.525-.823-1.647-.225-2.32l6.285-7.557c.15-.226.374-.375.6-.525.03 0 .064-.014.097-.03l.028-.014c.033-.015.065-.03.098-.03h.98z"/></svg>