<svg viewBox="0 0 60 60" xmlns="http://www.w3.org/2000/svg" fill-rule="evenodd" clip-rule="evenodd" stroke-linejoin="round" stroke-miterlimit="1.414"><path d="M48.227 29.297C44.47 21.93 37.487 17.35 30 17.35c-7.484 0-14.47 4.578-18.225 11.947l-.36.704.36.706C15.53 38.073 22.515 42.65 30 42.65c7.486 0 14.47-4.576 18.227-11.945l.36-.704-.36-.702zM30 39.55c-6.075 0-11.792-3.64-15.087-9.55 3.295-5.91 9.012-9.548 15.088-9.548 6.077 0 11.793 3.64 15.09 9.55-3.297 5.91-9.013 9.547-15.09 9.547zm0-14.39c-2.674 0-4.84 2.167-4.84 4.84 0 2.674 2.166 4.842 4.84 4.842 2.675 0 4.842-2.168 4.842-4.84 0-2.675-2.167-4.842-4.843-4.842z"/></svg>