<svg viewBox="0 0 60 60" xmlns="http://www.w3.org/2000/svg" fill-rule="evenodd" clip-rule="evenodd" stroke-linejoin="round" stroke-miterlimit="1.414"><path d="M15.525 24.74v20.897c.005 1.598 1.297 2.89 2.895 2.895h23.16c1.598-.005 2.89-1.297 2.895-2.895V14.363c-.005-1.598-1.297-2.89-2.895-2.895H29.024c-.695.005-1.378.18-2.027.44-.65.266-1.262.62-1.76 1.1l-8.12 7.957c-.498.493-.857 1.1-1.135 1.75-.272.648-.452 1.326-.457 2.026zM41.58 13.79c.156 0 .295.064.405.174.11.11.17.25.174.405V45.64c0 .156-.065.295-.176.405-.11.11-.25.168-.405.174H18.42c-.156 0-.295-.063-.405-.173-.11-.11-.168-.25-.174-.405V24.74c-.003-.172.05-.445.13-.728h7.8c1.6-.006 2.89-1.297 2.896-2.896v-7.29c.134-.024.26-.042.353-.042h12.56v.006zm-15.226 1.373v5.953c0 .156-.063.295-.173.406-.11.11-.247.168-.404.173h-6.098l6.677-6.532z" fill-rule="nonzero"/></svg>