<svg viewBox="0 0 24 24" xmlns="http://www.w3.org/2000/svg"><title>fullscreen</title><path d="M12.415 10.586V3c0-.55.448-.998 1-.998.265 0 .52.105.707.292l1.672 1.672 3.67-3.673c.39-.39 1.026-.39 1.416 0l2.828 2.83c.39.388.39 1.022 0 1.412l-3.672 3.67 1.672 1.674c.39.388.39 1.022 0 1.412-.188.188-.44.293-.706.293h-7.587c-.552 0-1-.448-1-1zM4.533 23.709l3.796-3.78L10 21.6c.39.39 1.024.39 1.414 0 .188-.187.293-.442.293-.707v-7.585c0-.552-.45-1-1-1H3.122c-.552 0-1 .448-1 1 0 .265.106.52.293.707l1.673 1.673-3.796 3.775c-.39.39-.393 1.023-.003 1.414l2.83 2.83c.39.39 1.02.39 1.413 0z" fill-rule="nonzero" fill="#000"/></svg>
