<svg viewBox="0 0 60 60" xmlns="http://www.w3.org/2000/svg" fill-rule="evenodd" clip-rule="evenodd" stroke-linejoin="round" stroke-miterlimit="1.414"><path d="M31.928 48.566H28.07c-1.005 0-1.854-.72-2.017-1.712l-.648-3.928c-.44-.158-.872-.337-1.295-.54l-3.238 2.32c-.794.57-1.947.474-2.637-.213l-2.728-2.728c-.712-.713-.802-1.823-.214-2.64l2.32-3.235c-.202-.424-.382-.857-.54-1.296l-3.926-.647c-.994-.165-1.714-1.016-1.714-2.02v-3.854c0-1.008.72-1.858 1.714-2.02l3.927-.647c.156-.438.336-.87.537-1.295l-2.32-3.235c-.584-.82-.493-1.93.216-2.64l2.727-2.726c.69-.69 1.846-.787 2.64-.217l3.236 2.32c.423-.202.856-.38 1.294-.537l.648-3.93c.163-.992 1.012-1.712 2.018-1.712h3.857c1.006 0 1.854.72 2.02 1.712l.646 3.93c.44.156.87.335 1.296.537l3.235-2.32c.796-.57 1.95-.474 2.64.217l2.726 2.725c.712.71.803 1.82.217 2.638l-2.322 3.24c.203.424.383.857.538 1.293l3.93.648c.992.16 1.714 1.01 1.714 2.017v3.857c0 1.008-.723 1.857-1.716 2.018l-3.926.65c-.155.436-.335.87-.538 1.294l2.322 3.236c.587.818.495 1.927-.215 2.64l-2.727 2.724c-.387.387-.9.6-1.45.6-.428 0-.84-.132-1.19-.382l-3.238-2.322c-.424.203-.856.382-1.293.54l-.65 3.927c-.162.993-1.01 1.713-2.017 1.713zm-7.905-8.24c.153 0 .306.035.447.11.662.35 1.355.64 2.063.855.345.11.6.4.66.757l.74 4.496c.012.068.07.117.14.117h3.856c.067 0 .126-.05.136-.116l.743-4.497c.057-.356.313-.648.658-.756.703-.214 1.398-.503 2.063-.855.32-.17.707-.143 1.002.067l3.705 2.657c.108.024.146.018.18-.017l2.73-2.726c.046-.048.052-.126.013-.182l-2.657-3.702c-.212-.295-.238-.683-.068-1.002.354-.668.642-1.362.857-2.062.105-.346.397-.602.755-.66l4.496-.743c.07-.01.12-.07.12-.14V28.07c0-.07-.05-.126-.12-.136l-4.496-.742c-.357-.06-.65-.315-.755-.66-.215-.7-.503-1.394-.857-2.063-.17-.32-.144-.71.067-1.002l2.657-3.706c.038-.055.032-.133-.015-.18l-2.727-2.726c-.035-.035-.072-.04-.098-.04l-3.788 2.68c-.296.21-.683.237-1.002.068-.663-.352-1.357-.64-2.06-.855-.347-.106-.605-.4-.663-.757l-.74-4.498c-.01-.067-.07-.116-.14-.116h-3.855c-.07 0-.127.048-.138.116l-.74 4.498c-.06.357-.317.65-.663.755-.704.216-1.397.502-2.06.854-.32.17-.708.143-1-.067l-3.707-2.656c-.108-.028-.146-.02-.18.016l-2.727 2.726c-.05.048-.055.125-.014.183l2.655 3.703c.21.294.237.682.068 1-.352.664-.64 1.358-.856 2.064-.107.346-.4.6-.757.66l-4.497.74c-.068.012-.117.07-.117.14v3.856c0 .07.05.13.12.14l4.493.74c.356.06.65.314.756.66.215.706.503 1.4.855 2.063.17.32.143.708-.068 1.003l-2.656 3.705c-.04.055-.032.133.015.18l2.727 2.728c.035.034.077.04.1.04l3.786-2.682c.165-.12.36-.18.555-.18zM30 36.712c-3.703 0-6.714-3.013-6.714-6.714 0-3.702 3.01-6.714 6.713-6.714 3.7 0 6.713 3.012 6.713 6.713 0 3.7-3.012 6.713-6.714 6.713zm0-11.52c-2.652 0-4.808 2.156-4.808 4.806S27.35 34.806 30 34.806c2.65 0 4.807-2.158 4.807-4.808S32.65 25.19 30 25.19z" fill-rule="nonzero"/></svg>