<svg
  xmlns="http://www.w3.org/2000/svg"
  viewBox="0 0 24 24"
  fill="none"
  stroke="currentColor"
  stroke-width="2"
  stroke-linecap="round"
  stroke-linejoin="round"
>
  <g transform="translate(1, 3)">
    <path
      d="M16,1.006 C14.06,0.127 12.989,0 11.32,0 C5.068,0 0,5.048 0,11.275 C0,12.962 0.333,14.563 1,16 M21.06,16 C21.829,14.075 21.94,13.012 21.94,11.356 C21.94,9.178 21.705,7.726 21.234,7"
      id="Shape"
    ></path>
    <path
      d="M20.172,2.7 C20.9923544,3.15662123 14.3368307,10.8547107 12.654,12.413 C11,13.9445922 9.78759419,13.0907026 9.78759419,13.0907026 C9.78759419,13.0907026 7.89596548,12.0152615 11,9.08881871 C15.660744,4.69473072 19.3516456,2.24337877 20.172,2.7 Z M11.5,0 L11.5,3 M1,16 L4,14 M18,14 L21,16 M2,5 L4,7"
      id="Shape"
    ></path>
  </g>
</svg>
