<?xml version="1.0" encoding="UTF-8" standalone="no"?><!DOCTYPE svg PUBLIC "-//W3C//DTD SVG 1.1//EN" "http://www.w3.org/Graphics/SVG/1.1/DTD/svg11.dtd"><svg width="100%" height="100%" viewBox="0 0 24 24" version="1.1" xmlns="http://www.w3.org/2000/svg" xmlns:xlink="http://www.w3.org/1999/xlink" xml:space="preserve" style="fill-rule:evenodd;clip-rule:evenodd;stroke-linejoin:round;stroke-miterlimit:1.41421;"><path d="M11.53,4.316c0.124,-0.126 0.293,-0.196 0.47,-0.196c0.175,0 0.344,0.07 0.47,0.195l6.517,6.516c0.025,0.025 0.05,0.05 0.078,0.07l3.03,3.03c0.32,0.32 0.32,0.84 0,1.16c-0.32,0.32 -0.838,0.32 -1.158,0.003l0,5.673c0,0.453 -0.368,0.82 -0.82,0.82c-0.454,0 -0.822,-0.367 -0.822,-0.82l0,-7.31l0,-0.006l-7.295,-7.292l-7.094,7.094c0.017,0.066 0.026,0.135 0.026,0.206l0,7.31c0,0.453 -0.368,0.82 -0.82,0.82c-0.454,0 -0.822,-0.367 -0.822,-0.82l0,-5.9l-0.223,0.223c-0.32,0.32 -0.84,0.32 -1.16,0c-0.32,-0.32 -0.32,-0.84 0,-1.16l0.467,-0.47c0.034,-0.03 0.067,-0.06 0.098,-0.09l9.057,-9.057l0.001,0.001Z"/><path d="M10.222,20.94l-0.942,0c-0.012,-0.1 -0.018,-0.2 -0.018,-0.303l0,-2.658c0,-1.51 1.227,-2.738 2.738,-2.738c1.51,0 2.738,1.227 2.738,2.738l0,2.66c0,0.1 -0.006,0.203 -0.017,0.302l-0.937,0l0,-1.066c0.002,-0.04 0.004,-0.08 0.004,-0.122l0,-1.737c0,-0.985 -0.8,-1.785 -1.787,-1.785c-0.986,0 -1.787,0.8 -1.787,1.786l0,1.736c0,0.06 0.003,0.122 0.01,0.18l0,1.008l-0.002,-0.001Zm6.368,-13.237c0.32,-0.244 0.72,-0.39 1.152,-0.39c1.047,0 1.896,0.85 1.896,1.896l0,1.543l-0.66,-0.66l0,-0.856c0,-0.683 -0.553,-1.237 -1.236,-1.237c-0.244,0 -0.472,0.07 -0.664,0.193l-0.488,-0.49l0,0.001Z"/></svg>