<svg viewBox="0 0 60 60" xmlns="http://www.w3.org/2000/svg" fill-rule="evenodd" clip-rule="evenodd" stroke-linejoin="round" stroke-miterlimit="1.414"><path d="M54.838 52.39c.123.437-5.352.623-5.764 0-.68-1.03-2.215-6.21-2.215-6.21H36.766s-1.635 5.186-2.226 6.21c-.49.85-5.698.478-5.582 0 1.07-4.424 9.093-24.874 10.225-26.908.505-.907 4.945-.893 5.392 0 1.957 3.91 9.02 22.534 10.26 26.908h.003zm-9.466-10.495l-3.53-10.146L38.3 41.896h7.072v-.002zm-19.15-22.358c.26-1.005.65-2.032.402-2.37-.496-.683-3.433-1.353-4.2-.972-.45.224-.405 1.052-.648 2.018-1.536-.227-3.17-.25-4.827-.082.04-1.113.107-2.2.2-3.25 0 0 4.26.14 4.626-.452.432-.7.354-2.987 0-3.386-.614-.696-4.015-.474-4.015-.474.22-1.097.393-2.223 0-2.564-.498-.436-3.067-1.075-3.465-.858-.542.295-.98 1.866-1.254 3.422 0 0-4.418-.017-5.07.474-.344.258-.357 2.984 0 3.386.653.74 4.518.45 4.518.45-.12 1.393-.194 2.837-.214 4.3-4.996 1.834-7.114 5.333-7.114 8.5 0 3.745 2.953 7.038 7.625 6.61 5.8-.526 9.673-4.905 11.945-10.293 2.346 1.356 3.326 3.63 2.44 5.736-.817 1.948-6.72 3.69-7.83 3.712-.663.01-.695 4.516 0 4.64 2.525.452 10.136-1.864 12.107-6.553 1.925-4.582-.273-9.593-5.226-11.99l.002-.003zm-5.986 3.166c-.724 1.605-1.677 3.197-2.887 4.45-.188-1.335-.312-2.797-.383-4.36 1.103-.143 2.22-.17 3.27-.086v-.004zm-7.84 1.504c.127 1.96.35 3.763.655 5.373-4.13.755-4.295-3.318-.655-5.373z" fill-rule="nonzero"/></svg>