<svg viewBox="0 0 60 60" xmlns="http://www.w3.org/2000/svg" fill-rule="evenodd" clip-rule="evenodd" stroke-linejoin="round" stroke-miterlimit="1.414"><path d="M44.475 36.761v8.876a2.903 2.903 0 0 1-2.895 2.895H18.42a2.903 2.903 0 0 1-2.895-2.895v-8.876h2.316v8.88a.593.593 0 0 0 .579.578h23.158a.593.593 0 0 0 .405-.174.564.564 0 0 0 .176-.405v-8.879h2.316z"/><path d="M15.525 37.141v-8.877a2.903 2.903 0 0 1 2.895-2.895h23.16a2.903 2.903 0 0 1 2.895 2.895v8.877h-2.316V28.26a.593.593 0 0 0-.579-.578H18.422a.602.602 0 0 0-.581.579v8.88h-2.316z"/><path d="M28.543 38.598A2.642 2.642 0 0 1 30 33.75a2.644 2.644 0 0 1 1.447 4.854l.29 2.365a.45.45 0 0 1-.109.351.45.45 0 0 1-.335.15h-2.551a.479.479 0 0 1-.477-.536l.278-2.336zM20.195 23.435h-.004v-3.768c0-4.835 3.925-8.76 8.761-8.76h2.096c4.836 0 8.761 3.925 8.761 8.76v3.768h-.001a.605.605 0 0 1-.604.596h-1.208a.605.605 0 0 1-.604-.604v-1.48a.65.65 0 0 1 .008-.099l.007-1.605a6.904 6.904 0 0 0-6.9-6.9h-1.014a6.904 6.904 0 0 0-6.9 6.9l-.006 3.192h-.002a.598.598 0 0 1-.597.596h-1.195a.598.598 0 0 1-.598-.596z"/></svg>