<svg viewBox="0 0 60 60" xmlns="http://www.w3.org/2000/svg" fill-rule="evenodd" clip-rule="evenodd" stroke-linejoin="round" stroke-miterlimit="1.414"><path d="M31.632 28.778V18.07l3.346 3.347c.327.327.735.49 1.143.49.41 0 .82-.163 1.15-.49.65-.653.65-1.632 0-2.285l-6.12-6.12-.24-.246-.08-.08c-.08 0-.08-.083-.16-.083s-.08 0-.162-.082c-.08 0-.08 0-.16-.08-.245-.08-.41-.08-.653 0-.08 0-.08 0-.163.08-.08 0-.08 0-.16.09-.083 0-.083.08-.164.08 0 0-.083 0-.083.08-.08.09-.165.17-.247.25l-6.12 6.12c-.654.66-.654 1.63 0 2.29.325.33.733.49 1.14.49.408 0 .816-.16 1.143-.49l3.345-3.344V28.7l-6.446 6.447c-1.06 1.06-1.716 2.53-1.716 4.08v6.765c0 .897.734 1.63 1.632 1.63.897 0 1.63-.733 1.63-1.63v-6.684c0-.653.247-1.306.736-1.796L30 31.716l5.795 5.794c.49.49.734 1.143.734 1.796v6.683c0 .89.73 1.63 1.63 1.63.9 0 1.63-.74 1.63-1.63V39.3c0-1.55-.57-3.02-1.72-4.08l-6.45-6.448z" fill-rule="nonzero"/></svg>