<svg
  viewBox="0 0 87 16"
  xmlns="http://www.w3.org/2000/svg"
  fill-rule="evenodd"
  clip-rule="evenodd"
  stroke-linejoin="round"
  stroke-miterlimit="1.414"
>
  <path
    d="M14.2 0h-.343c-.106 0-.3.09-.364.222l-4.966 9.6h-.043L3.516.222C3.453.09 3.26 0 3.154 0H2.81a.415.415 0 0 0-.385.355L.005 15.287c-.042.29.15.492.41.492h2.524c.214 0 .384-.18.407-.358l.94-6.866h.044l3.62 7.2c.063.133.235.244.362.244h.386c.106 0 .3-.11.364-.245l3.596-7.2h.043l.965 6.867a.44.44 0 0 0 .405.357h2.528c.257 0 .45-.202.407-.493L14.585.355A.412.412 0 0 0 14.2 0m9.26.222h-2.57c-.214 0-.407.2-.407.422v14.712c0 .222.193.423.406.423h2.57c.213 0 .405-.202.405-.424V.644c0-.222-.192-.422-.405-.422m16.284 4.8c0-2.644-2.098-4.8-4.668-4.8h-6.4c-.236 0-.408.2-.408.422v14.712c0 .222.172.423.408.423h2.547c.214 0 .406-.202.406-.424V9.69h1.477l2.848 5.888c.043.09.17.2.343.2h2.846c.364 0 .514-.356.364-.644l-2.93-5.644c1.86-.78 3.168-2.423 3.168-4.47m-4.946 1.846h-3.17V3.4h3.17c.877 0 1.628.756 1.628 1.688 0 .935-.75 1.778-1.628 1.778M52.655.222h-8.863c-.235 0-.405.2-.405.422v14.712c0 .222.17.423.405.423h8.863a.417.417 0 0 0 .408-.424v-2.422a.415.415 0 0 0-.408-.423h-5.93V9.513h4.882c.213 0 .405-.18.405-.425v-2.42c0-.223-.192-.423-.405-.423h-4.882V3.49h5.93c.236 0 .408-.2.408-.424V.644a.415.415 0 0 0-.408-.422m15.75 7.556H64.1c-.236 0-.408.178-.408.422v2.2c0 .222.172.4.408.4h1.348v1.287c-.64.268-1.284.357-1.905.357-2.334 0-4.24-2-4.24-4.422 0-2.444 1.885-4.488 4.22-4.488 1.048 0 1.99.288 2.803 1.065.17.134.408.134.58-.022l1.69-1.867a.4.4 0 0 0-.043-.6C67.1.8 65.13.02 63.33.02c-4.26 0-7.685 3.558-7.685 8.002 0 4.445 3.426 7.956 7.686 7.956 3.105 0 5.31-1.443 5.31-1.443a.572.572 0 0 0 .172-.357L68.79 8.2c0-.222-.17-.422-.386-.422M79.294 0c-4.282 0-7.687 3.578-7.687 8.022 0 4.445 3.405 7.978 7.686 7.978C83.573 16 87 12.467 87 8.022 87 3.578 83.574 0 79.293 0m0 12.444c-2.333 0-4.26-2-4.26-4.422 0-2.444 1.927-4.467 4.26-4.467 2.355 0 4.28 2.023 4.28 4.467 0 2.42-1.925 4.422-4.28 4.422"
  ></path>
</svg>
