<svg viewBox="0 0 60 60" xmlns="http://www.w3.org/2000/svg" fill-rule="evenodd" clip-rule="evenodd" stroke-linejoin="round" stroke-miterlimit="1.414"><path d="M41.493 11.97c-.097-.045-1.993 4.734-1.993 4.734 4.912 2.37 8.3 7.397 8.3 13.216 0 5.185-2.69 9.738-6.75 12.346-1.617 1.038-3.448 1.766-5.413 2.105l2.2-2.2c.813-.81.813-2.13 0-2.943-.815-.814-2.134-.814-2.948 0l-5 5-1.46 1.458c-.816.814-.815 2.133 0 2.947l.684.686 5.772 5.773c.814.813 2.133.813 2.947 0 .813-.814.813-2.134 0-2.95L35.3 49.604c1.158-.125 2.285-.354 3.376-.67 8.238-2.398 14.26-10 14.26-19.012 0-7.947-4.686-14.797-11.443-17.95zM12.2 29.92c0-5.214 2.723-9.79 6.824-12.39 1.65-1.048 3.522-1.776 5.533-2.094l-2.394 2.393c-.813.81-.813 2.13 0 2.943.815.814 2.134.814 2.948 0l5.13-5.128 1.33-1.33c.815-.814.816-2.134 0-2.948l-.88-.88-5.58-5.578c-.81-.815-2.13-.815-2.944 0-.813.812-.813 2.132 0 2.945l2.397 2.395c-1.153.135-2.275.367-3.36.69-8.176 2.44-14.137 10.01-14.137 18.98 0 8.05 4.806 14.973 11.703 18.07-.008-.003 1.84-4.803 1.84-4.803-4.97-2.348-8.41-7.405-8.41-13.267z"/></svg>