<svg viewBox="0 0 60 60" xmlns="http://www.w3.org/2000/svg" fill-rule="evenodd" clip-rule="evenodd" stroke-linejoin="round" stroke-miterlimit="1.414"><path d="M32.04 46.29c7.753-1.094 13.727-7.764 13.727-15.82 0-8.815-7.158-15.974-15.975-15.974-5.308 0-10.015 2.595-12.92 6.585l-2.444-1.41c3.4-4.824 9.017-7.98 15.364-7.98 10.367 0 18.783 8.417 18.783 18.78 0 9.364-6.862 17.134-15.826 18.554-.08.038-2.207.23-2.207.23-.39.03-.73-.26-.763-.648l-.114-1.41c-.032-.39.258-.732.648-.764l1.724-.14z"/><path d="M15.832 12.524c0-.4-.324-.723-.722-.723h-1.445c-.4 0-.723.327-.723.726v8.306c0 .4.324.724.723.724h1.445c.398 0 .722-.324.722-.723v-8.305z"/><path d="M23.53 22.995c.398 0 .722-.324.722-.723v-1.445c0-.4-.324-.723-.723-.723h-9.86c-.4 0-.72.324-.72.723v1.445c0 .4.32.723.72.723h9.86z"/></svg>