<svg viewBox="0 0 60 60" xmlns="http://www.w3.org/2000/svg" fill-rule="evenodd" clip-rule="evenodd" stroke-linejoin="round" stroke-miterlimit="1.414"><path d="M37.788 40.578c-3.022 2.413-6.85 3.86-11.02 3.86-9.78 0-17.69-7.96-17.69-17.69s7.96-17.69 17.69-17.69 17.69 7.96 17.69 17.69c0 4.157-1.445 7.99-3.86 11.02l9.738 9.74c.78.78.78 2.028 0 2.81-.312.415-.832.623-1.352.623-.52 0-1.04-.2-1.405-.57l-9.8-9.79zm-1.205-4.28c2.42-2.467 3.92-5.838 3.92-9.55 0-7.544-6.19-13.735-13.735-13.735-7.544 0-13.683 6.19-13.683 13.735 0 7.544 6.14 13.684 13.683 13.684 3.703 0 7.08-1.48 9.56-3.88.037-.043.076-.085.117-.127.045-.044.09-.086.138-.126z"/></svg>