<svg xmlns="http://www.w3.org/2000/svg" viewBox="0 0 24 24"><path d="M5 9c1.654 0 3 1.346 3 3s-1.346 3-3 3-3-1.346-3-3 1.346-3 3-3zm0-2c-2.762 0-5 2.24-5 5s2.238 5 5 5 5-2.24 5-5-2.238-5-5-5zm15 9c-1.165 0-2.204.506-2.935 1.3l-5.488-2.926c-.23.636-.55 1.23-.944 1.764l5.488 2.927c-.07.3-.12.61-.12.935 0 2.21 1.79 4 4 4s4-1.79 4-4-1.79-4-4-4zm0 6c-1.103 0-2-.897-2-2s.897-2 2-2 2 .897 2 2-.897 2-2 2zm0-22c-2.21 0-4 1.79-4 4 0 .324.05.634.12.935l-5.487 2.927c.395.536.713 1.128.944 1.764L17.065 6.7c.73.794 1.77 1.3 2.935 1.3 2.21 0 4-1.79 4-4s-1.79-4-4-4zm0 6c-1.103 0-2-.897-2-2s.897-2 2-2 2 .897 2 2-.897 2-2 2z"/></svg>