<svg xmlns="http://www.w3.org/2000/svg" viewBox="0 0 512 512">
  <path
    fill="currentColor"
    d="M256 105.5c-83.9 0-152.2 68.3-152.2 152.2 0 83.9 68.3 152.2 152.2 152.2 83.9 0 152.2-68.3 152.2-152.2 0-84-68.3-152.2-152.2-152.2zm0 263.5c-61.4 0-111.4-50-111.4-111.4 0-61.4 50-111.4 111.4-111.4 61.4 0 111.4 50 111.4 111.4 0 61.4-50 111.4-111.4 111.4zm0-294.2c11.3 0 20.4-9.1 20.4-20.4v-23c0-11.3-9.1-20.4-20.4-20.4-11.3 0-20.4 9.1-20.4 20.4v23c0 11.3 9.1 20.4 20.4 20.4zm0 362.4c-11.3 0-20.4 9.1-20.4 20.4v22.9c0 11.3 9.1 20.4 20.4 20.4 11.3 0 20.4-9.1 20.4-20.4v-22.9c0-11.2-9.1-20.4-20.4-20.4zm224.6-201.6h-23c-11.3 0-20.4 9.1-20.4 20.4 0 11.3 9.1 20.4 20.4 20.4h23c11.3 0 20.4-9.1 20.4-20.4 0-11.3-9.1-20.4-20.4-20.4zm-426.2 0h-23c-11.3 0-20.4 9.1-20.4 20.4 0 11.3 9.1 20.4 20.4 20.4h22.9c11.3 0 20.4-9.1 20.4-20.4.1-11.3-9.1-20.4-20.3-20.4zm346-152.8L384.1 99c-8 8-8 20.9 0 28.9s20.9 8 28.9 0l16.2-16.2c8-8 8-20.9 0-28.9s-20.9-8-28.8 0zM99 384.1l-16.2 16.2c-8 8-8 20.9 0 28.9s20.9 8 28.9 0l16.2-16.2c8-8 8-20.9 0-28.9s-20.9-7.9-28.9 0zm314 0c-8-8-20.9-8-28.9 0s-8 20.9 0 28.9l16.2 16.2c8 8 20.9 8 28.9 0s8-20.9 0-28.9L413 384.1zM99 127.9c8 8 20.9 8 28.9 0s8-20.9 0-28.9l-16.2-16.2c-8-8-20.9-8-28.9 0s-8 20.9 0 28.9L99 127.9z"
  />
</svg>
