<svg viewBox="0 0 60 60" xmlns="http://www.w3.org/2000/svg" fill-rule="evenodd" clip-rule="evenodd" stroke-linejoin="round" stroke-miterlimit="1.414"><path d="M43.572 32.33c.187.025.363.09.52.21.065.047.122.103.177.163l4.88 5.563c.035.05.05.06.07.124.03.094.02.2-.03.284-.01.02-.027.038-.04.057l-4.883 5.566c-.138.15-.298.264-.482.326-.42.14-.882-.007-1.174-.376-.076-.097-.14-.206-.19-.325-.06-.152-.096-.32-.103-.486-.007-.167.015-.336.063-.493.058-.186.15-.347.27-.49l2.325-2.647c-.325 0-.65.002-.976-.004-.22-.006-.437-.013-.655-.024-1.127-.062-2.25-.21-3.358-.454-2.297-.502-4.524-1.402-6.59-2.65-1.548-.938-2.998-2.07-4.332-3.368-.043-.042-.042-.042-.083-.087-.127-.16-.223-.343-.274-.552-.105-.436 0-.914.273-1.243.08-.095.17-.176.27-.24.113-.072.237-.122.364-.147.144-.03.294-.026.437.01.17.04.32.126.46.242.14.13.274.262.41.392.31.284.624.563.944.83.574.48 1.17.923 1.78 1.334 2.16 1.447 4.54 2.46 7.003 2.97.924.19 1.86.312 2.8.36.507.027 1.016.025 1.525.025l-2.325-2.65c-.13-.157-.23-.34-.284-.548-.124-.477.007-1.004.33-1.338.085-.088.18-.16.285-.215.155-.08.317-.118.484-.12.055 0 .055 0 .11.004zm-.054-19.002c.206.017.402.083.575.214.064.048.12.104.176.164l4.88 5.562c.013.02.03.037.04.058.047.084.057.19.03.284-.02.063-.035.074-.07.124l-4.883 5.563c-.14.15-.298.264-.482.326-.42.14-.882-.008-1.174-.377-.076-.097-.14-.207-.19-.325-.06-.15-.096-.315-.103-.483-.007-.167.015-.336.063-.494.058-.184.15-.345.27-.486l2.325-2.65c-.295 0-.59 0-.884.003-.35.005-.696.02-1.045.045-1.133.082-2.26.267-3.368.555-2.962.77-5.763 2.277-8.173 4.382-.868.758-1.685 1.592-2.443 2.49-.35.415-.683.843-1.01 1.283l-.095.133c-.142.198-.136.203-.26.415-.11.155-.218.308-.328.46-.36.49-.73.97-1.118 1.433-.765.913-1.585 1.766-2.454 2.55-2.526 2.278-3.354 3.098-5.745 4.102-1.185.498-3.38 1.388-4.637 1.52-.61.065-1.22.1-1.832.112-.557.006-1.116.002-1.675.002-.19-.006-.373-.054-.542-.158-.383-.238-.62-.716-.597-1.213.006-.13.03-.26.068-.38.045-.14.11-.268.192-.38.094-.13.21-.24.337-.318.152-.093.316-.14.487-.155.563-.017 1.13.002 1.692-.004.545-.01 1.088-.04 1.63-.097 1.12-.116 3.314-1.03 4.37-1.47 1.952-.812 2.418-1.467 4.682-3.47 1.213-1.075 2.316-2.298 3.306-3.636l.098-.132c.14-.197.135-.202.26-.414l.33-.462c.362-.494.736-.977 1.127-1.444.808-.966 1.678-1.866 2.602-2.687 2.69-2.39 5.827-4.106 9.15-4.98 1.244-.328 2.51-.54 3.782-.63.39-.03.78-.048 1.173-.054.307-.004.614-.002.92-.002l-2.324-2.65c-.118-.14-.21-.3-.268-.487-.137-.444-.047-.953.23-1.303.078-.098.17-.182.268-.25.148-.098.307-.15.474-.174.056-.005.11-.006.165-.005zM11.38 17.71c1.474.016 2.944.18 4.39.504 2.782.626 3.53 1.836 5.933 3.55.87.623 1.706 1.31 2.497 2.056.173.164.344.33.514.5.096.095.198.188.285.297.073.096.14.204.185.32.063.153.1.32.107.486.008.167-.013.336-.06.495-.038.122-.09.238-.158.343-.256.4-.7.607-1.128.52-.193-.04-.366-.138-.52-.274-.137-.134-.27-.272-.407-.407-.248-.24-.497-.475-.753-.7-.57-.51-1.865-1.74-2.432-2.257-1.056-.957-1.7-1.665-4.04-2.256-.94-.237-1.894-.4-2.854-.488-.483-.046-.967-.068-1.453-.077-.528-.004-1.056-.002-1.584-.002-.19-.005-.373-.053-.542-.157-.382-.237-.62-.716-.596-1.212.006-.13.03-.26.068-.38.045-.14.11-.268.192-.38.094-.13.21-.24.337-.32.153-.093.317-.14.488-.155.51-.014 1.02-.003 1.53 0z"/></svg>