<svg viewBox="0 0 60 60" xmlns="http://www.w3.org/2000/svg" fill-rule="evenodd" clip-rule="evenodd" stroke-linejoin="round" stroke-miterlimit="1.414"><clipPath id="a"><path d="M11.29 12.056h37.614V49.67H11.29z"/></clipPath><g clip-path="url(#a)"><path d="M27.07 15.65l16.292 16.29c.612.613.612 1.605 0 2.217l-9.977 9.973c-.612.612-1.604.61-2.216 0L14.882 27.844c-.294-.294-.46-.692-.46-1.108v-9.978c0-.866.703-1.568 1.568-1.568h9.972c.416 0 .814.166 1.108.46zm-.458-3.594H14.424c-1.73 0-3.134 1.403-3.134 3.134v11.545c0 1.247.495 2.443 1.377 3.325L30.06 47.454c1.225 1.223 3.21 1.223 4.433 0l12.194-12.187c1.225-1.223 1.225-3.208 0-4.433l-17.86-17.86c-.586-.588-1.384-.918-2.215-.918zm-3.703 11.62c-1.225 1.225-3.207 1.225-4.435 0-1.224-1.226-1.224-3.21 0-4.433 1.226-1.225 3.21-1.224 4.434 0 1.225 1.226 1.223 3.207 0 4.433z" fill-rule="nonzero"/></g></svg>