<svg viewBox="0 0 60 60" xmlns="http://www.w3.org/2000/svg" fill-rule="evenodd" clip-rule="evenodd" stroke-linejoin="round" stroke-miterlimit="1.414"><path d="M44.7 29.893c-.067-.037-.134-.07-.205-.094-.03-.014-3.164-1.196-4.996-3.71-1.07-1.47-2.663-2.75-4.347-4.11-1.866-1.506-3.796-3.062-5.088-4.934-.8-1.16-1.37-2.266-1.874-3.243-.933-1.81-1.74-3.375-3.447-3.375-.526 0-1.046.162-1.59.5-1.136.704-1.872 1.922-2.072 3.43-.314 2.368.726 5.1 2.785 7.304 1.34 1.436 1.557 2.558 1.335 3.082-.23.547-1.06.887-2.222.91-.405.007-.815.01-1.223.013-2.918.022-5.673.042-7.212 1.644-.702.733-1.04 1.684-1 2.827.048 1.492.51 2.497 1.158 3.125-.245.39-.442.848-.54 1.376-.232 1.282.194 2.602 1.268 3.937-.327.557-.597 1.293-.534 2.163.085 1.166.733 2.216 1.93 3.126.02.853.216 2.15 1.074 3.315.892 1.212 2.245 1.96 4.022 2.22.787.114 1.617.17 2.538.17 2.23 0 4.574-.345 6.64-.65 1.758-.26 3.417-.502 4.732-.502h.308c3.402 0 5.455 0 6.43-2.866.1-.292.375-.917.696-1.64 1.965-4.434 5.255-11.855 1.435-14.02zM43.27 36.1c-.618 2.315-1.784 4.944-2.555 6.683-.376.85-.648 1.463-.788 1.874-.293.865-.33.975-3.79.975h-.307c-1.52 0-3.276.26-5.137.533-2.07.304-4.21.62-6.236.62-.783 0-1.482-.048-2.135-.144-1.814-.262-2.446-1.24-2.643-2.09h1.533c.77 0 1.394-.622 1.394-1.393 0-.77-.624-1.394-1.394-1.394H18.67c-.607-.426-.967-.86-.996-1.216-.02-.223.087-.455.21-.64h5.74c.77 0 1.394-.622 1.394-1.392 0-.77-.625-1.395-1.394-1.395h-5.776c-.698-.773-1.034-1.462-.946-1.97.085-.495.593-.9.923-1.103h7.126c.77 0 1.396-.623 1.396-1.393s-.624-1.394-1.394-1.394h-7.134c-.085-.017-.172-.03-.26-.03-.156 0-.314.03-.47.087-.002 0-.083.02-.19.02-.13 0-.525 0-.57-1.288-.014-.488.114-.687.228-.805.724-.754 3.218-.773 5.22-.788.42-.003.842-.006 1.258-.014 2.328-.046 4.054-.997 4.737-2.61.753-1.78.073-3.994-1.866-6.07-1.76-1.887-2.218-3.838-2.058-5.035.05-.386.22-1.084.78-1.43.015-.01.03-.02.044-.027.272.314.695 1.135 1.044 1.81.515 1 1.156 2.244 2.058 3.55 1.522 2.204 3.706 3.966 5.63 5.52 1.538 1.24 2.99 2.41 3.844 3.583 2.086 2.863 5.366 4.31 6.126 4.618.293.25.56 1.27-.1 3.75z" fill-rule="nonzero"/></svg>