<svg xmlns="http://www.w3.org/2000/svg" viewBox="0 0 24 24"><path d="M10.12 16.064c2.292-.53 4.426-.994 3.393-2.946C10.366 7.178 12.678 4 16 4c3.39 0 5.644 3.3 2.49 9.12-1.066 1.963 1.148 2.426 3.392 2.945 1.985.458 2.118 1.428 2.118 3.107l-.003.828h-1.33c0-2.09.084-2.367-1.225-2.67-1.9-.437-3.695-.85-4.35-2.303-.24-.53-.396-1.402.225-2.543 1.372-2.532 1.72-4.726.95-6.017-.903-1.517-3.618-1.51-4.513-.022-.768 1.273-.426 3.48.936 6.05.607 1.146.447 2.016.206 2.543-.66 1.445-2.472 1.863-4.39 2.305-1.252.29-1.172.588-1.172 2.657h-1.33c0-2.196-.177-3.406 2.115-3.936zM0 20h1.33c0-1.918-.187-1.385 1.823-1.973 1.014-.295 1.91-.723 2.316-1.612.213-.463.356-1.22-.16-2.197-.953-1.798-1.22-3.374-.713-4.215.547-.91 2.27-.908 2.82.015C8.35 11.585 6.622 14 6.396 15H7.79c.44-1 1.206-2.208 1.206-3.9C8.998 9.09 7.686 8 6 8c-2.493 0-4.227 2.383-1.866 6.84.774 1.463-.826 1.81-2.545 2.208C.1 17.393 0 18.12 0 19.382L.002 20z"/></svg>