<svg viewBox="0 0 60 60" xmlns="http://www.w3.org/2000/svg" fill-rule="evenodd" clip-rule="evenodd" stroke-linejoin="round" stroke-miterlimit="1.414"><g fill-rule="nonzero"><path d="M36.12 11.953c-.64-1.927-2.702-2.977-4.63-2.37-1.926.64-2.975 2.7-2.37 4.63l9.474 29.21c.64 1.792 2.6 2.807 4.46 2.268 1.96-.572 3.145-2.633 2.504-4.526 0-.067-9.438-29.21-9.438-29.21z" fill="#ecb32d"/><path d="M21.413 16.706c-.64-1.927-2.702-2.977-4.63-2.37-1.926.64-2.975 2.7-2.37 4.63l9.474 29.21c.64 1.792 2.6 2.807 4.46 2.268 1.96-.573 3.145-2.634 2.504-4.527 0-.067-9.437-29.21-9.437-29.21z" fill="#63c1a0"/><path d="M48.064 36.13c1.927-.64 2.977-2.7 2.37-4.628-.64-1.927-2.702-2.977-4.63-2.37L16.56 38.638c-1.792.64-2.807 2.6-2.268 4.46.573 1.96 2.634 3.145 4.527 2.504.067 0 29.244-9.472 29.244-9.472z" fill="#e01a59"/><path d="M22.64 44.39c1.893-.608 4.36-1.417 6.998-2.26-.607-1.893-1.416-4.36-2.26-6.998l-6.997 2.26 2.26 6.997z" fill="#331433"/><path d="M37.38 39.602c2.637-.842 5.105-1.652 7-2.258-.608-1.894-1.417-4.362-2.26-7l-6.998 2.26 2.258 6.998z" fill="#d62027"/><path d="M43.277 21.423c1.927-.64 2.977-2.7 2.37-4.628-.64-1.927-2.7-2.977-4.628-2.37l-29.213 9.472c-1.79.64-2.807 2.6-2.268 4.46.572 1.96 2.633 3.145 4.526 2.505.068 0 29.21-9.44 29.21-9.44z" fill="#89d3df"/><path d="M17.886 29.648c1.894-.606 4.362-1.416 7-2.258-.844-2.637-1.653-5.105-2.26-7l-6.998 2.26 2.258 6.998z" fill="#258b74"/><path d="M32.593 24.895c2.637-.842 5.106-1.65 7-2.258-.844-2.637-1.653-5.105-2.26-7l-6.998 2.26 2.258 6.998z" fill="#819c3c"/></g></svg>